<svg width="53" height="58" viewBox="0 0 53 58" fill="none" xmlns="http://www.w3.org/2000/svg">
<path d="M27.4943 1C22.2438 5.58548 12.2888 16.8606 7.99111 21.6595C6.18063 23.6811 3.69346 26.7859 1.37095 30.4185C-1.80308 35.383 16.1596 44.2543 25.9807 51.4402C27.4843 52.274 28.467 52.929 29.792 53.7578C31.117 54.5866 32.7547 55.5692 34.442 56.5815" stroke="#333333" stroke-width="2" stroke-linecap="round"/>
<path d="M1.68945 27.7988C3.66458 29.4464 7.62477 31.4315 11.9274 33.5803C16.5377 35.8828 25.4682 35.8416 32.5652 34.6032C35.1358 34.1546 37.5098 32.8739 40.0674 32.3564C41.6875 32.0286 43.5848 31.9248 45.6634 32.0965C47.3358 32.424 48.3184 33.0791 51.3158 33.754" stroke="#333333" stroke-width="2" stroke-linecap="round"/>
</svg>
